<svg width="80" height="80" viewBox="0 0 80 80" fill="none" xmlns="http://www.w3.org/2000/svg">
<path fill-rule="evenodd" clip-rule="evenodd" d="M52.5394 14.9578C48.7671 13.0652 44.5079 11.9998 39.9998 11.9998C24.5359 11.9998 11.9998 24.5359 11.9998 39.9998C11.9998 55.4638 24.5359 67.9998 39.9998 67.9998C55.4638 67.9998 67.9998 55.4638 67.9998 39.9998C67.9998 34.9389 66.6571 30.1915 64.3085 26.0945L67.5909 21.2899C71.2152 26.6242 73.3332 33.0647 73.3332 39.9998C73.3332 58.4093 58.4093 73.3332 39.9998 73.3332C21.5903 73.3332 6.6665 58.4093 6.6665 39.9998C6.6665 21.5903 21.5903 6.6665 39.9998 6.6665C45.6245 6.6665 50.9238 8.05963 55.5715 10.5197L52.5394 14.9578ZM57.0599 17.7955C58.4893 18.8954 59.8094 20.1301 61.0014 21.4808L64.0894 16.9606C62.8496 15.6646 61.5063 14.4685 60.0727 13.3856L57.0599 17.7955Z" fill="#33363D"/>
<path fill-rule="evenodd" clip-rule="evenodd" d="M64.8347 11.1306C66.0507 11.9613 66.3631 13.6206 65.5323 14.8367L42.7599 48.17C42.3123 48.8253 41.5961 49.2471 40.806 49.3209C40.0159 49.3947 39.234 49.1128 38.6728 48.5518L24.7785 34.6629C23.7369 33.6217 23.7366 31.9332 24.7778 30.8916C25.8189 29.85 27.5074 29.8497 28.549 30.8909L40.1696 42.507L61.1285 11.8282C61.9593 10.6121 63.6186 10.2998 64.8347 11.1306Z" fill="#256EF4"/>
</svg>
