<svg width="19" height="19" viewBox="0 0 19 19" fill="none" xmlns="http://www.w3.org/2000/svg">
<path fill-rule="evenodd" clip-rule="evenodd" d="M14.7297 3.34811C14.9767 3.1011 15.3771 3.10108 15.6242 3.34808C15.8712 3.59508 15.8712 3.99556 15.6242 4.24257L10.3804 9.48664L15.6273 14.7338C15.8743 14.9808 15.8743 15.3813 15.6272 15.6283C15.3802 15.8753 14.9798 15.8753 14.7328 15.6283L9.48597 10.3812L4.23918 15.6283C3.99218 15.8753 3.59171 15.8753 3.34469 15.6283C3.09768 15.3813 3.09767 14.9808 3.34467 14.7338L8.59151 9.48664L3.34776 4.24257C3.10076 3.99556 3.10077 3.59508 3.34778 3.34808C3.5948 3.10108 3.99527 3.1011 4.24227 3.34811L9.48597 8.59212L14.7297 3.34811Z" fill="#33363D"/>
</svg>
