<svg width="80" height="80" viewBox="0 0 80 80" fill="none" xmlns="http://www.w3.org/2000/svg">
<path fill-rule="evenodd" clip-rule="evenodd" d="M39.9998 12.0001C24.5359 12.0001 11.9998 24.5361 11.9998 40.0001C11.9998 55.4641 24.5359 68.0001 39.9998 68.0001C55.4638 68.0001 67.9998 55.4641 67.9998 40.0001C67.9998 24.5361 55.4638 12.0001 39.9998 12.0001ZM6.6665 40.0001C6.6665 21.5906 21.5903 6.66675 39.9998 6.66675C58.4093 6.66675 73.3332 21.5906 73.3332 40.0001C73.3332 58.4096 58.4093 73.3334 39.9998 73.3334C21.5903 73.3334 6.6665 58.4096 6.6665 40.0001ZM36.6665 23.8334C36.6665 23.5573 36.8904 23.3334 37.1665 23.3334H42.8332C43.1093 23.3334 43.3332 23.5573 43.3332 23.8334V46.1667C43.3332 46.4429 43.1093 46.6667 42.8332 46.6667H37.1665C36.8904 46.6667 36.6665 46.4429 36.6665 46.1667V23.8334ZM37.1665 50.0001C36.8904 50.0001 36.6665 50.2239 36.6665 50.5001V56.1668C36.6665 56.4429 36.8904 56.6668 37.1665 56.6668H42.8332C43.1093 56.6668 43.3332 56.4429 43.3332 56.1668V50.5001C43.3332 50.2239 43.1093 50.0001 42.8332 50.0001H37.1665Z" fill="#4C87F6"/>
</svg>
