<svg width="20" height="21" viewBox="0 0 20 21" fill="none" xmlns="http://www.w3.org/2000/svg">
<rect x="20" y="0.5" width="20" height="20" rx="10" transform="rotate(90 20 0.5)" fill="#CDD1D5"/>
<path fill-rule="evenodd" clip-rule="evenodd" d="M6.0649 5.43451C5.75248 5.12209 5.24595 5.12209 4.93353 5.43451C4.62111 5.74693 4.62111 6.25346 4.93353 6.56588L8.86863 10.501L4.9351 14.4345C4.62268 14.7469 4.62268 15.2535 4.9351 15.5659C5.24751 15.8783 5.75405 15.8783 6.06647 15.5659L10 11.6323L13.9335 15.5659C14.246 15.8783 14.7525 15.8783 15.0649 15.5659C15.3773 15.2535 15.3773 14.7469 15.0649 14.4345L11.1314 10.501L15.0665 6.56588C15.3789 6.25346 15.3789 5.74693 15.0665 5.43451C14.754 5.12209 14.2475 5.12209 13.9351 5.43451L10 9.36961L6.0649 5.43451Z" fill="#33363D"/>
</svg>
