<svg width="24" height="24" viewBox="0 0 24 24" fill="none" xmlns="http://www.w3.org/2000/svg">
<path fill-rule="evenodd" clip-rule="evenodd" d="M12.5755 16.0543C12.4247 16.2112 12.2165 16.2998 11.9989 16.2998C11.7812 16.2998 11.573 16.2112 11.4222 16.0543L6.42219 10.8543C6.11595 10.5358 6.12588 10.0294 6.44437 9.72315C6.76285 9.41692 7.26929 9.42685 7.57552 9.74533L11.1989 13.5136V3.79982C11.1989 3.35799 11.557 2.99982 11.9989 2.99982C12.4407 2.99982 12.7989 3.35799 12.7989 3.79982V13.5136L16.4222 9.74533C16.7284 9.42685 17.2349 9.41692 17.5533 9.72315C17.8718 10.0294 17.8818 10.5358 17.5755 10.8543L12.5755 16.0543ZM3.60042 16.0004C3.60052 15.5586 3.24244 15.2003 2.80061 15.2002C2.35878 15.2001 2.00052 15.5582 2.00042 16L1.99963 19.2C1.99958 19.4122 2.08384 19.6158 2.23388 19.7658C2.38391 19.9159 2.58743 20.0002 2.79963 20.0002H21.1989C21.6407 20.0002 21.9989 19.642 21.9989 19.2002V16.0002C21.9989 15.5584 21.6407 15.2002 21.1989 15.2002C20.757 15.2002 20.3989 15.5584 20.3989 16.0002V18.4002H3.59983L3.60042 16.0004Z" fill="#4C87F6"/>
</svg>
