<svg width="24" height="25" viewBox="0 0 24 25" fill="none" xmlns="http://www.w3.org/2000/svg">
<path fill-rule="evenodd" clip-rule="evenodd" d="M3.99844 11.4004C3.99844 7.58963 7.08767 4.50039 10.8984 4.50039C14.7092 4.50039 17.7984 7.58963 17.7984 11.4004C17.7984 13.2135 17.0991 14.8632 15.9555 16.0947C15.8799 16.1323 15.809 16.1825 15.746 16.2455C15.6829 16.3086 15.6326 16.3796 15.595 16.4554C14.3633 17.6002 12.7126 18.3004 10.8984 18.3004C7.08767 18.3004 3.99844 15.2112 3.99844 11.4004ZM16.318 17.9489C14.8468 19.1678 12.9582 19.9004 10.8984 19.9004C6.20402 19.9004 2.39844 16.0948 2.39844 11.4004C2.39844 6.70597 6.20402 2.90039 10.8984 2.90039C15.5929 2.90039 19.3984 6.70597 19.3984 11.4004C19.3984 13.4589 18.6667 15.3465 17.4491 16.8173L20.7662 20.1343C21.0786 20.4468 21.0786 20.9533 20.7662 21.2657C20.4538 21.5781 19.9473 21.5781 19.6348 21.2657L16.318 17.9489Z" fill="#33363D"/>
</svg>
