<svg width="46" height="46" viewBox="0 0 46 46" fill="none" xmlns="http://www.w3.org/2000/svg">
<rect width="46" height="46" rx="23" fill="#F4F5F6"/>
<path d="M13.4952 7.49976C16.6843 7.49992 19.3438 9.76399 19.9562 12.7722H26.045C26.6617 9.76927 29.3196 7.51058 32.505 7.5105C36.147 7.51058 39.0997 10.4632 39.0997 14.1052C39.0997 17.7473 36.1471 20.6997 32.505 20.7C31.167 20.7 29.9226 20.3007 28.8829 19.616L19.4445 29.0535C19.6729 29.5296 19.847 30.037 19.9562 30.5681H26.0519C26.6698 27.567 29.3268 25.3103 32.5109 25.3103C36.1528 25.3105 39.1054 28.263 39.1056 31.905C39.1057 35.5472 36.153 38.4997 32.5109 38.4998C29.3239 38.4998 26.6649 36.2393 26.0499 33.2341H19.9562C19.3402 36.2379 16.6822 38.4968 13.4962 38.4968C9.85402 38.4969 6.90149 35.5443 6.90149 31.9021C6.90175 28.2601 9.85417 25.3074 13.4962 25.3074C15.1464 25.3074 16.6541 25.915 17.8107 26.9167L26.9962 17.7312C26.5441 17.0457 26.2159 16.2713 26.045 15.4392H19.9513C19.3303 18.4363 16.6764 20.689 13.4952 20.6892C9.85304 20.6893 6.89954 17.7367 6.89954 14.0945C6.89969 10.4524 9.85313 7.4998 13.4952 7.49976ZM32.5109 27.9773C30.8108 27.9773 29.3625 29.0568 28.8156 30.5681H32.5079C33.2443 30.5681 33.8409 31.1648 33.8409 31.9011C33.8409 32.6375 33.2443 33.2341 32.5079 33.2341H28.8136C29.3584 34.7494 30.8079 35.8328 32.5109 35.8328C34.6802 35.8327 36.4387 34.0744 36.4386 31.905C36.4385 29.7358 34.6801 27.9775 32.5109 27.9773ZM13.4962 27.9744C11.3269 27.9744 9.56775 29.7329 9.5675 31.9021C9.5675 34.0715 11.3267 35.8308 13.4962 35.8308C15.6657 35.8308 17.424 34.0715 17.424 31.9021C17.4238 29.7329 15.6656 27.9744 13.4962 27.9744ZM32.505 10.1775C30.3357 10.1775 28.5765 11.9359 28.5763 14.1052C28.5763 16.2747 30.3356 18.034 32.505 18.0339C34.6743 18.0337 36.4327 16.2746 36.4327 14.1052C36.4326 11.936 34.6742 10.1776 32.505 10.1775ZM13.4952 10.1667C11.3258 10.1668 9.56666 11.9252 9.56653 14.0945C9.56653 16.2639 11.3257 18.0232 13.4952 18.0232C15.1922 18.023 16.6376 16.9463 17.1866 15.4392H14.1466C13.4103 15.4392 12.8127 14.8425 12.8126 14.1062C12.8126 13.3698 13.4102 12.7722 14.1466 12.7722H17.1945C16.6515 11.2536 15.2005 10.1669 13.4952 10.1667Z" fill="#303336"/>
</svg>
