<svg width="12" height="13" viewBox="0 0 12 13" fill="none" xmlns="http://www.w3.org/2000/svg">
<path d="M0.23327 4.93376L5.5666 0.370796C5.81611 0.157331 6.18389 0.157331 6.4334 0.370795L11.7667 4.93376C11.9148 5.06042 12 5.2455 12 5.44033V11.4667C12 11.8349 11.7015 12.1333 11.3333 12.1333H8.16667C7.79848 12.1333 7.5 11.8349 7.5 11.4667V8.4668C7.5 8.2827 7.35076 8.13346 7.16667 8.13346H4.83333C4.64924 8.13346 4.5 8.2827 4.5 8.4668V11.4667C4.5 11.8349 4.20152 12.1333 3.83333 12.1333H0.666667C0.298477 12.1333 0 11.8349 0 11.4667V5.44033C0 5.2455 0.0852277 5.06042 0.23327 4.93376Z" fill="#1E2124"/>
</svg>
