<svg width="16" height="16" viewBox="0 0 16 16" fill="none" xmlns="http://www.w3.org/2000/svg">
<path d="M8.0113 16C3.58192 16 0 12.4181 0 8.0113C0 3.60452 3.58192 0 8.0113 0C12.4407 0 16 3.58192 16 8.0113C16 12.4407 12.4181 16 8.0113 16ZM8.0113 14.8249C11.7627 14.8249 14.8023 11.7627 14.8023 8.0113C14.8023 4.25989 11.7627 1.19774 8.0113 1.19774C4.25989 1.19774 1.19774 4.25989 1.19774 8.0113C1.19774 11.7627 4.25989 14.8249 8.0113 14.8249ZM7.31073 12.6102V5.9887H8.72316V12.6102H7.31073ZM8.0339 4.99435C7.55932 4.99435 7.17514 4.63277 7.17514 4.20339C7.17514 3.77401 7.57062 3.40113 8.0339 3.40113C8.49718 3.40113 8.88136 3.76271 8.88136 4.20339C8.88136 4.64407 8.50847 4.99435 8.0339 4.99435Z" fill="#4C87F6"/>
</svg>
