<svg width="54" height="54" viewBox="0 0 54 54" fill="none" xmlns="http://www.w3.org/2000/svg">
<circle cx="14.3001" cy="17.2335" r="13.7667" fill="#00FFFF" fill-opacity="0.5"/>
<path d="M39.0171 28.9663C39.2385 28.9663 39.4794 29.0074 39.6743 29.0825L37.397 32.4634H11.2671C11.0257 32.4634 10.8296 32.6586 10.8296 32.8999V42.7329C10.8296 42.9743 11.0257 43.1704 11.2671 43.1704H26.7817L30.2778 46.6665H11.2671C9.09477 46.6665 7.3335 44.9052 7.3335 42.7329V32.8999C7.33352 30.7276 9.09478 28.9663 11.2671 28.9663H39.0171ZM37.2271 10.8296H11.2671C11.0257 10.8296 10.8296 11.0257 10.8296 11.2671V21.1001C10.8296 21.3415 11.0257 21.5376 11.2671 21.5376H27.0005L30.564 25.0337H11.2671C9.09477 25.0337 7.3335 23.2724 7.3335 21.1001V11.2671C7.3335 9.09477 9.09477 7.3335 11.2671 7.3335H39.6089L37.2271 10.8296Z" fill="#33363D"/>
<path fill-rule="evenodd" clip-rule="evenodd" d="M45.4607 8.07312C46.2589 8.61632 46.4655 9.70372 45.9223 10.5019L36.9995 23.613C36.7065 24.0435 36.2369 24.321 35.7185 24.3699C35.2 24.4188 34.6868 24.234 34.3185 23.8659L28.8527 18.4029C28.1698 17.7204 28.1695 16.6136 28.852 15.9307C29.5345 15.2478 30.6414 15.2475 31.3243 15.93L35.2969 19.9006L43.0319 8.53479C43.5751 7.73662 44.6625 7.52992 45.4607 8.07312Z" fill="#256EF4"/>
<path fill-rule="evenodd" clip-rule="evenodd" d="M45.4607 29.9247C46.2589 30.4679 46.4655 31.5553 45.9223 32.3535L36.9995 45.4646C36.7065 45.8951 36.2369 46.1725 35.7185 46.2214C35.2 46.2703 34.6868 46.0856 34.3185 45.7175L28.8527 40.2545C28.1698 39.572 28.1695 38.4651 28.852 37.7822C29.5345 37.0994 30.6414 37.0991 31.3243 37.7816L35.2969 41.7521L43.0319 30.3864C43.5751 29.5882 44.6625 29.3815 45.4607 29.9247Z" fill="#256EF4"/>
</svg>
