<svg width="47" height="47" viewBox="0 0 47 47" fill="none" xmlns="http://www.w3.org/2000/svg">
<circle cx="23.7667" cy="23.7667" r="13.7667" fill="#00FFFF" fill-opacity="0.5"/>
<path d="M0.710938 9.79333C0.710938 7.9463 2.20997 6.44727 4.057 6.44727H43.2538C45.1008 6.44727 46.5998 7.9463 46.5998 9.79333V37.5179C46.5998 38.4053 46.2473 39.2564 45.6198 39.8839C44.9923 40.5114 44.1412 40.8639 43.2538 40.8639H4.057C3.16957 40.8639 2.31849 40.5114 1.69098 39.8839C1.06347 39.2564 0.710938 38.4053 0.710938 37.5179L0.710938 9.79333ZM4.057 9.31532C3.93023 9.31532 3.80864 9.36568 3.719 9.45533C3.62935 9.54497 3.57899 9.66655 3.57899 9.79333V37.5179C3.57899 37.7817 3.79314 37.9959 4.057 37.9959H43.2538C43.3805 37.9959 43.5021 37.9455 43.5918 37.8559C43.6814 37.7662 43.7318 37.6446 43.7318 37.5179V9.79333C43.7318 9.66655 43.6814 9.54497 43.5918 9.45533C43.5021 9.36568 43.3805 9.31532 43.2538 9.31532H4.057Z" fill="#33363D"/>
<path d="M20.1045 30.5081V16.8026C20.1048 16.6311 20.1512 16.4628 20.2388 16.3155C20.3265 16.1681 20.4522 16.047 20.6027 15.9649C20.7533 15.8828 20.9231 15.8427 21.0945 15.8487C21.2659 15.8548 21.4324 15.9069 21.5768 15.9995L32.2383 22.8503C32.3733 22.9368 32.4844 23.0559 32.5613 23.1966C32.6382 23.3372 32.6785 23.495 32.6785 23.6553C32.6785 23.8156 32.6382 23.9734 32.5613 24.1141C32.4844 24.2547 32.3733 24.3738 32.2383 24.4603L21.5768 31.313C21.4324 31.4056 21.2659 31.4577 21.0945 31.4638C20.9231 31.4699 20.7533 31.4298 20.6027 31.3477C20.4522 31.2655 20.3265 31.1445 20.2388 30.9971C20.1512 30.8497 20.1048 30.6814 20.1045 30.51V30.5081Z" fill="#256EF4"/>
</svg>
