<svg width="24" height="24" viewBox="0 0 24 24" fill="none" xmlns="http://www.w3.org/2000/svg">
<path fill-rule="evenodd" clip-rule="evenodd" d="M22 12C22 12.2176 21.9113 12.4258 21.7545 12.5767L16.5545 17.5767C16.236 17.8829 15.7296 17.873 15.4233 17.5545C15.1171 17.236 15.127 16.7296 15.4455 16.4233L19.2138 12.8L2.80078 12.8C2.35896 12.8 2.00078 12.4418 2.00078 12C2.00078 11.5582 2.35896 11.2 2.80078 11.2L19.2138 11.2L15.4455 7.57668C15.127 7.27044 15.1171 6.76401 15.4233 6.44553C15.7296 6.12704 16.236 6.11711 16.5545 6.42335L21.7545 11.4233C21.9113 11.5742 22 11.7824 22 12Z" fill="#083891"/>
</svg>
