<svg width="16" height="16" viewBox="0 0 16 16" fill="none" xmlns="http://www.w3.org/2000/svg">
<path d="M8.0083 15.0625C4.09033 15.0625 0.919434 11.8916 0.919434 7.99023C0.919434 4.07227 4.09033 0.901367 8.0083 0.901367C11.9097 0.901367 15.0806 4.07227 15.0806 7.99023C15.0806 11.8916 11.9097 15.0625 8.0083 15.0625ZM8.0083 14.0166C11.3286 14.0166 14.0181 11.3105 14.0181 7.99023C14.0181 4.66992 11.3286 1.96387 8.0083 1.96387C4.68799 1.96387 1.98193 4.66992 1.98193 7.99023C1.98193 11.3105 4.68799 14.0166 8.0083 14.0166ZM7.39404 12.0576V6.19727H8.63916V12.0576H7.39404ZM8.0249 5.31738C7.60986 5.31738 7.26123 5.00195 7.26123 4.62012C7.26123 4.22168 7.60986 3.90625 8.0249 3.90625C8.42334 3.90625 8.77197 4.22168 8.77197 4.62012C8.77197 5.00195 8.43994 5.31738 8.0249 5.31738Z" fill="#083891"/>
</svg>
