<svg width="24" height="25" viewBox="0 0 24 25" fill="none" xmlns="http://www.w3.org/2000/svg">
<path fill-rule="evenodd" clip-rule="evenodd" d="M12.5754 16.5542C12.4246 16.7111 12.2163 16.7998 11.9987 16.7998C11.7811 16.7998 11.5729 16.7111 11.4221 16.5542L6.42206 11.3542C6.11583 11.0358 6.12576 10.5293 6.44424 10.2231C6.76273 9.91685 7.26916 9.92678 7.5754 10.2453L11.1987 14.0135V4.29976C11.1987 3.85793 11.5569 3.49976 11.9987 3.49976C12.4406 3.49976 12.7987 3.85793 12.7987 4.29976V14.0135L16.4221 10.2453C16.7283 9.92678 17.2347 9.91685 17.5532 10.2231C17.8717 10.5293 17.8816 11.0358 17.5754 11.3542L12.5754 16.5542ZM3.60029 16.5003C3.6004 16.0585 3.24232 15.7003 2.80049 15.7001C2.35866 15.7 2.0004 16.0581 2.00029 16.5L1.99951 19.7C1.99946 19.9122 2.08372 20.1157 2.23376 20.2658C2.38379 20.4158 2.5873 20.5001 2.79951 20.5001H21.1987C21.6406 20.5001 21.9987 20.142 21.9987 19.7001V16.5001C21.9987 16.0583 21.6406 15.7001 21.1987 15.7001C20.7569 15.7001 20.3987 16.0583 20.3987 16.5001V18.9001H3.59971L3.60029 16.5003Z" fill="#0B50D0"/>
</svg>
