<svg width="24" height="24" viewBox="0 0 24 24" fill="none" xmlns="http://www.w3.org/2000/svg">
<path d="M21.1989 15.2C21.6406 15.2 21.9984 15.5582 21.9987 15.9998V19.2C21.9987 19.6418 21.6407 19.9998 21.1989 19.9998H2.79944C2.5873 19.9998 2.384 19.9155 2.23401 19.7654C2.08405 19.6154 1.99958 19.4122 1.99963 19.2L2.00061 15.9998C2.00082 15.5581 2.35874 15.2 2.80042 15.2C3.24224 15.2001 3.60033 15.559 3.60022 16.0008V18.4002H20.399V15.9998C20.3993 15.5582 20.7572 15.2 21.1989 15.2ZM11.9987 2.99982C12.4404 2.99982 12.7984 3.35788 12.7985 3.79962V13.5135L16.4225 9.74493C16.7288 9.4268 17.235 9.41733 17.5533 9.72345C17.8716 10.0297 17.8819 10.5359 17.5758 10.8543L12.5758 16.0545C12.425 16.2114 12.2163 16.2996 11.9987 16.2996C11.7812 16.2996 11.5733 16.2112 11.4225 16.0545L6.42249 10.8543C6.11636 10.5359 6.12583 10.0297 6.44397 9.72345C6.76243 9.41724 7.26956 9.42651 7.57581 9.74493L11.1989 13.5135V3.79962C11.199 3.35795 11.557 2.99992 11.9987 2.99982Z" fill="#083891"/>
</svg>
