<svg width="46" height="46" viewBox="0 0 46 46" fill="none" xmlns="http://www.w3.org/2000/svg">
<rect width="46" height="46" rx="23" fill="#F4F5F6"/>
<path d="M34.667 8C36.5077 8.00018 37.9998 9.49232 38 11.333V34.667C37.9998 36.5077 36.5077 37.9998 34.667 38H11.333C9.49232 37.9998 8.00018 36.5077 8 34.667V11.333C8.00018 9.49232 9.49232 8.00018 11.333 8H34.667ZM11.333 10.667C10.9651 10.6672 10.6672 10.9651 10.667 11.333V34.667C10.6672 35.0349 10.9651 35.3328 11.333 35.333H34.667C35.0349 35.3328 35.3328 35.0349 35.333 34.667V11.333C35.3328 10.9651 35.0349 10.6672 34.667 10.667H11.333ZM23 24.167C24.8118 24.167 26.5944 24.6765 28.0449 25.6436C29.4975 26.6121 30.5579 28.0034 30.9609 29.6221C31.1388 30.3365 30.7036 31.0602 29.9893 31.2383C29.2747 31.4162 28.551 30.9811 28.373 30.2666C28.1516 29.3769 27.5425 28.5137 26.5654 27.8623C25.586 27.2094 24.3265 26.833 23 26.833C21.6735 26.833 20.414 27.2094 19.4346 27.8623C18.4575 28.5137 17.8484 29.3769 17.627 30.2666C17.449 30.9811 16.7253 31.4162 16.0107 31.2383C15.2964 31.0602 14.8612 30.3365 15.0391 29.6221C15.4421 28.0034 16.5025 26.6121 17.9551 25.6436C19.4056 24.6765 21.1882 24.167 23 24.167ZM23 14.167C25.5772 14.167 27.6668 16.2558 27.667 18.833C27.667 21.4103 25.5773 23.5 23 23.5C20.4227 23.5 18.333 21.4103 18.333 18.833C18.3332 16.2558 20.4228 14.167 23 14.167ZM23 16.833C21.8955 16.833 21.0002 17.7286 21 18.833C21 19.9376 21.8954 20.833 23 20.833C24.1046 20.833 25 19.9376 25 18.833C24.9998 17.7286 24.1045 16.833 23 16.833Z" fill="#303336"/>
</svg>
