<svg width="16" height="9" viewBox="0 0 16 9" fill="none" xmlns="http://www.w3.org/2000/svg">
<path fill-rule="evenodd" clip-rule="evenodd" d="M16 4.5C16 4.66884 15.9291 4.83039 15.8036 4.94741L11.6434 8.82672C11.3886 9.06432 10.9835 9.05662 10.7385 8.80952C10.4935 8.56242 10.5014 8.16949 10.7562 7.9319L13.7709 5.12069L0.640024 5.12069C0.286548 5.12069 -2.11685e-07 4.8428 -1.96701e-07 4.5C-1.81717e-07 4.1572 0.286548 3.87931 0.640024 3.87931L13.7709 3.87931L10.7562 1.0681C10.5014 0.830508 10.4935 0.437584 10.7385 0.190485C10.9835 -0.0566149 11.3886 -0.0643193 11.6434 0.173277L15.8036 4.05259C15.9291 4.16961 16 4.33116 16 4.5Z" fill="white"/>
</svg>
