<svg width="24" height="24" viewBox="0 0 24 24" fill="none" xmlns="http://www.w3.org/2000/svg">
<path fill-rule="evenodd" clip-rule="evenodd" d="M6.2002 8.00019C6.2002 7.00608 7.00608 6.2002 8.0002 6.2002H19.2002C20.1943 6.2002 21.0002 7.00608 21.0002 8.0002V19.2002C21.0002 20.1943 20.1943 21.0002 19.2002 21.0002H8.00019C7.00608 21.0002 6.2002 20.1943 6.2002 19.2002V8.00019ZM8.0002 7.8002C7.88974 7.8002 7.8002 7.88974 7.8002 8.00019V19.2002C7.8002 19.3107 7.88974 19.4002 8.00019 19.4002H19.2002C19.3107 19.4002 19.4002 19.3106 19.4002 19.2002V8.0002C19.4002 7.88974 19.3106 7.8002 19.2002 7.8002H8.0002Z" fill="#B1B8BE"/>
<path fill-rule="evenodd" clip-rule="evenodd" d="M3.00098 4.8C3.00098 3.80589 3.80686 3 4.80098 3H18.2002C18.642 3 19.0002 3.35817 19.0002 3.8C19.0002 4.24183 18.642 4.6 18.2002 4.6H4.80098C4.69052 4.6 4.60098 4.68954 4.60098 4.8V18.2002C4.60098 18.642 4.2428 19.0002 3.80098 19.0002C3.35915 19.0002 3.00098 18.642 3.00098 18.2002V4.8Z" fill="#B1B8BE"/>
</svg>
