<svg width="25" height="24" viewBox="0 0 25 24" fill="none" xmlns="http://www.w3.org/2000/svg">
<path fill-rule="evenodd" clip-rule="evenodd" d="M7.05 2C6.60817 2 6.25 2.35817 6.25 2.8V7H4.05282C3.05892 7 2.25312 7.80556 2.25282 8.79946L2.25 18.2C2.24994 18.4122 2.33419 18.6157 2.48423 18.7658C2.63427 18.9159 2.83779 19.0002 3.05 19.0002H6.44922V21.2002C6.44922 21.642 6.80739 22.0002 7.24922 22.0002H17.4492C17.891 22.0002 18.2492 21.642 18.2492 21.2002V19.0002H21.4531C21.895 19.0002 22.2531 18.642 22.2531 18.2002V8.8C22.2531 7.80589 21.4472 7 20.4531 7H18.2492V2.8C18.2492 2.35817 17.891 2 17.4492 2H7.05ZM16.6492 7V3.6H7.85V7H16.6492ZM20.6531 17.4002H18.2492V14.0002C18.2492 13.788 18.1649 13.5845 18.0149 13.4345C17.8649 13.2845 17.6614 13.2002 17.4492 13.2002H7.24922C6.80739 13.2002 6.44922 13.5584 6.44922 14.0002V17.4002H3.85024L3.85282 8.79994C3.85286 8.68951 3.94239 8.6 4.05282 8.6H20.4531C20.5636 8.6 20.6531 8.68954 20.6531 8.8V17.4002ZM8.04922 14.8002V20.4002H16.6492V14.8002H8.04922Z" fill="#33363D"/>
</svg>
