<svg width="21" height="20" viewBox="0 0 21 20" fill="none" xmlns="http://www.w3.org/2000/svg">
<rect width="16.6667" height="16.6667" rx="8.33333" transform="matrix(1 0 0 -1 2.1665 18.333)" fill="#052B57"/>
<path d="M10.4157 7.86719C10.968 7.86719 11.4157 7.41947 11.4157 6.86719C11.4157 6.3149 10.968 5.86719 10.4157 5.86719C9.86341 5.86719 9.41569 6.3149 9.41569 6.86719C9.41569 7.41947 9.86341 7.86719 10.4157 7.86719Z" fill="white"/>
<path d="M9.19902 8.6923C9.08857 8.6923 8.99902 8.78184 8.99902 8.8923V9.4923C8.99902 9.60276 9.08857 9.6923 9.19902 9.6923H9.71699C9.82745 9.6923 9.91699 9.78184 9.91699 9.8923V12.9945H9.03301C8.92255 12.9945 8.83301 13.084 8.83301 13.1945V13.7945C8.83301 13.9049 8.92255 13.9945 9.03301 13.9945H11.9663C12.0768 13.9945 12.1663 13.9049 12.1663 13.7945V13.1945C12.1663 13.084 12.0768 12.9945 11.9663 12.9945H11.417V8.8923C11.417 8.78184 11.3274 8.6923 11.217 8.6923H9.19902Z" fill="white"/>
</svg>
