<svg width="64" height="64" viewBox="0 0 64 64" fill="none" xmlns="http://www.w3.org/2000/svg">
<path fill-rule="evenodd" clip-rule="evenodd" d="M42.0313 11.9663C39.0135 10.4522 35.6061 9.59992 31.9997 9.59992C19.6285 9.59992 9.59967 19.6287 9.59967 31.9999C9.59967 44.3711 19.6285 54.3999 31.9997 54.3999C44.3709 54.3999 54.3997 44.3711 54.3997 31.9999C54.3997 27.9511 53.3255 24.1532 51.4466 20.8757L54.0725 17.0319C56.972 21.2994 58.6663 26.4518 58.6663 31.9999C58.6663 46.7275 46.7273 58.6666 31.9997 58.6666C17.2721 58.6666 5.33301 46.7275 5.33301 31.9999C5.33301 17.2723 17.2721 5.33325 31.9997 5.33325C36.4994 5.33325 40.7388 6.44775 44.457 8.41577L42.0313 11.9663ZM45.6477 14.2365C46.7912 15.1163 47.8474 16.1042 48.8009 17.1847L51.2713 13.5685C50.2795 12.5318 49.2048 11.5749 48.0579 10.7085L45.6477 14.2365Z" fill="#33363D"/>
<path fill-rule="evenodd" clip-rule="evenodd" d="M51.8673 8.9045C52.8402 9.56913 53.0901 10.8966 52.4254 11.8694L34.2075 38.5361C33.8494 39.0603 33.2765 39.3977 32.6444 39.4568C32.0123 39.5158 31.3868 39.2903 30.9378 38.8415L19.8224 27.7304C18.9891 26.8974 18.9889 25.5466 19.8218 24.7134C20.6548 23.8801 22.0055 23.8798 22.8388 24.7128L32.1353 34.0057L48.9024 9.4626C49.5671 8.48974 50.8945 8.23987 51.8673 8.9045Z" fill="#256EF4"/>
</svg>
