<svg width="24" height="24" viewBox="0 0 24 24" fill="none" xmlns="http://www.w3.org/2000/svg">
<path fill-rule="evenodd" clip-rule="evenodd" d="M6.19922 7.99995C6.19922 7.00584 7.00511 6.19995 7.99922 6.19995H19.1992C20.1933 6.19995 20.9992 7.00584 20.9992 7.99995V19.2C20.9992 20.1941 20.1933 21 19.1992 21H7.99922C7.0051 21 6.19922 20.1941 6.19922 19.2V7.99995ZM7.99922 7.79995C7.88876 7.79995 7.79922 7.88949 7.79922 7.99995V19.2C7.79922 19.3104 7.88876 19.4 7.99922 19.4H19.1992C19.3097 19.4 19.3992 19.3104 19.3992 19.2V7.99995C19.3992 7.88949 19.3097 7.79995 19.1992 7.79995H7.99922Z" fill="#33363D"/>
<path fill-rule="evenodd" clip-rule="evenodd" d="M3 4.79976C3 3.80564 3.80589 2.99976 4.8 2.99976H18.1992C18.641 2.99976 18.9992 3.35793 18.9992 3.79976C18.9992 4.24158 18.641 4.59976 18.1992 4.59976H4.8C4.68954 4.59976 4.6 4.6893 4.6 4.79976V18.2C4.6 18.6418 4.24183 19 3.8 19C3.35817 19 3 18.6418 3 18.2V4.79976Z" fill="#33363D"/>
</svg>
