<svg width="54" height="54" viewBox="0 0 54 54" fill="none" xmlns="http://www.w3.org/2000/svg">
<circle cx="39.6685" cy="39.3887" r="13.7667" fill="#00FFFF" fill-opacity="0.5"/>
<path fill-rule="evenodd" clip-rule="evenodd" d="M14.3242 31.3707C14.3242 30.4052 15.1069 29.6226 16.0724 29.6226H38.3613C38.8249 29.6226 39.2695 29.8067 39.5974 30.1346C39.9252 30.4624 40.1094 30.9071 40.1094 31.3707V47.104C40.1094 48.0695 39.3267 48.8522 38.3613 48.8522H16.0724C15.1069 48.8522 14.3242 48.0695 14.3242 47.104V31.3707ZM17.8205 33.1189V45.3559H36.6131V33.1189H17.8205Z" fill="#33363D"/>
<path fill-rule="evenodd" clip-rule="evenodd" d="M13.8892 6.89659C13.8892 5.93111 14.6718 5.14844 15.6373 5.14844H38.3615C39.327 5.14844 40.1097 5.93111 40.1097 6.89659V17.8225H36.6134V8.64473H17.3855V17.8225H13.8892V6.89659Z" fill="#256EF4"/>
<path fill-rule="evenodd" clip-rule="evenodd" d="M5.15412 20.0059C5.15477 17.834 6.9156 16.0737 9.08745 16.0737H44.9252C47.0975 16.0737 48.8585 17.8347 48.8585 20.0071V40.5482C48.8585 41.5137 48.0758 42.2964 47.1103 42.2964H37.9326V38.8001H45.3622V20.0071C45.3622 19.7657 45.1665 19.57 44.9252 19.57H9.08745C8.84613 19.57 8.65049 19.7656 8.65042 20.0069L8.64477 38.8001H16.0807V42.2964H6.8961C6.43237 42.2964 5.98764 42.1121 5.65978 41.7842C5.33193 41.4562 5.14781 41.0114 5.14795 40.5477L5.15412 20.0059Z" fill="#33363D"/>
</svg>
