<svg width="53" height="54" viewBox="0 0 53 54" fill="none" xmlns="http://www.w3.org/2000/svg">
<g clip-path="url(#clip0_1996_6178)">
<circle cx="39.2032" cy="39.0113" r="13.7667" fill="#00FFFF" fill-opacity="0.5"/>
<path d="M41.0679 44.4815H9.01856V12.4321H28.2773L31.1909 9.51855H9.01856C8.24583 9.51855 7.50475 9.82552 6.95835 10.3719C6.41195 10.9183 6.10498 11.6594 6.10498 12.4321V44.4815C6.10498 45.2542 6.41195 45.9953 6.95835 46.5417C7.50475 47.0881 8.24583 47.3951 9.01856 47.3951H41.0679C41.8407 47.3951 42.5818 47.0881 43.1282 46.5417C43.6746 45.9953 43.9815 45.2542 43.9815 44.4815V22.6297L41.0679 25.5432V44.4815Z" fill="#33363D"/>
<path d="M49.1241 9.28563L44.2147 4.37625C43.9969 4.15777 43.738 3.98443 43.453 3.86616C43.1681 3.74789 42.8626 3.68701 42.554 3.68701C42.2455 3.68701 41.9399 3.74789 41.655 3.86616C41.37 3.98443 41.1111 4.15777 40.8933 4.37625L20.9207 24.4654L19.3036 31.4725C19.2347 31.8122 19.242 32.1629 19.3248 32.4994C19.4077 32.836 19.5641 33.15 19.7828 33.4188C20.0015 33.6877 20.2771 33.9047 20.5897 34.0543C20.9023 34.204 21.2442 34.2825 21.5908 34.2841C21.7699 34.3038 21.9507 34.3038 22.1298 34.2841L29.1952 32.7254L49.1241 12.6071C49.3426 12.3892 49.5159 12.1304 49.6342 11.8454C49.7525 11.5604 49.8134 11.2549 49.8134 10.9464C49.8134 10.6378 49.7525 10.3323 49.6342 10.0473C49.5159 9.76235 49.3426 9.50351 49.1241 9.28563ZM27.6802 30.0303L22.3483 31.2103L23.5866 25.9222L38.6207 10.7861L42.7288 14.8943L27.6802 30.0303ZM44.375 13.2481L40.2668 9.13995L42.5249 6.83822L46.6622 10.9755L44.375 13.2481Z" fill="#256EF4"/>
</g>
<defs>
<clipPath id="clip0_1996_6178">
<rect width="52.4444" height="52.4444" fill="white" transform="translate(0.277832 0.777832)"/>
</clipPath>
</defs>
</svg>
