<svg width="50" height="47" viewBox="0 0 50 47" fill="none" xmlns="http://www.w3.org/2000/svg">
<circle cx="13.7667" cy="15.7667" r="13.7667" fill="#00FFFF" fill-opacity="0.5"/>
<path d="M3.71094 9.79333C3.71094 7.9463 5.20997 6.44727 7.057 6.44727H46.2538C48.1008 6.44727 49.5998 7.9463 49.5998 9.79333V37.5179C49.5998 38.4053 49.2473 39.2564 48.6198 39.8839C47.9923 40.5114 47.1412 40.8639 46.2538 40.8639H7.057C6.16957 40.8639 5.31849 40.5114 4.69098 39.8839C4.06347 39.2564 3.71094 38.4053 3.71094 37.5179V9.79333ZM7.057 9.31532C6.93023 9.31532 6.80864 9.36568 6.719 9.45533C6.62935 9.54497 6.57899 9.66655 6.57899 9.79333V37.5179C6.57899 37.7817 6.79314 37.9959 7.057 37.9959H46.2538C46.3805 37.9959 46.5021 37.9455 46.5918 37.8559C46.6814 37.7662 46.7318 37.6446 46.7318 37.5179V9.79333C46.7318 9.66655 46.6814 9.54497 46.5918 9.45533C46.5021 9.36568 46.3805 9.31532 46.2538 9.31532H7.057Z" fill="#33363D"/>
<path d="M22.1045 30.5081V16.8026C22.1048 16.6311 22.1512 16.4628 22.2388 16.3155C22.3265 16.1681 22.4522 16.047 22.6027 15.9649C22.7533 15.8828 22.9231 15.8427 23.0945 15.8487C23.2659 15.8548 23.4324 15.9069 23.5768 15.9995L34.2383 22.8503C34.3733 22.9368 34.4844 23.0559 34.5613 23.1966C34.6382 23.3372 34.6785 23.495 34.6785 23.6553C34.6785 23.8156 34.6382 23.9734 34.5613 24.1141C34.4844 24.2547 34.3733 24.3738 34.2383 24.4603L23.5768 31.313C23.4324 31.4056 23.2659 31.4577 23.0945 31.4638C22.9231 31.4699 22.7533 31.4298 22.6027 31.3477C22.4522 31.2655 22.3265 31.1445 22.2388 30.9971C22.1512 30.8497 22.1048 30.6814 22.1045 30.51V30.5081Z" fill="#256EF4"/>
</svg>
