<svg width="54" height="55" viewBox="0 0 54 55" fill="none" xmlns="http://www.w3.org/2000/svg">
<circle cx="14.3604" cy="40.6334" r="13.7667" fill="#00FFFF" fill-opacity="0.5"/>
<path fill-rule="evenodd" clip-rule="evenodd" d="M9.51855 9.08177C9.51855 6.90945 11.2796 5.14844 13.4519 5.14844H30.2778C30.7415 5.14844 31.1862 5.33266 31.514 5.66056L43.9679 18.1165C44.2957 18.4444 44.4798 18.889 44.4798 19.3526V44.9192C44.4798 47.0915 42.7188 48.8526 40.5465 48.8526H13.4519C11.2796 48.8526 9.51855 47.0916 9.51855 44.9192V9.08177ZM13.4519 8.64473C13.2105 8.64473 13.0149 8.8404 13.0149 9.08177V44.9192C13.0149 45.1606 13.2105 45.3563 13.4519 45.3563H40.5465C40.7878 45.3563 40.9835 45.1606 40.9835 44.9192V21.1007H32.463C30.2907 21.1007 28.5297 19.3397 28.5297 17.1674V8.64473H13.4519ZM32.026 11.1175L38.5118 17.6044H32.463C32.2216 17.6044 32.026 17.4088 32.026 17.1674V11.1175Z" fill="#33363D"/>
<path fill-rule="evenodd" clip-rule="evenodd" d="M35.8549 23.3709C36.652 23.9156 36.8567 25.0034 36.312 25.8005L27.3527 38.9116C27.0592 39.3411 26.5898 39.6175 26.0719 39.6659C25.554 39.7143 25.0415 39.5295 24.6736 39.1619L19.2072 33.6989C18.5243 33.0164 18.524 31.9095 19.2065 31.2266C19.8889 30.5437 20.9958 30.5434 21.6787 31.2259L25.6548 35.1994L33.4253 23.8279C33.97 23.0308 35.0578 22.8262 35.8549 23.3709Z" fill="#256EF4"/>
</svg>
