<svg width="54" height="54" viewBox="0 0 54 54" fill="none" xmlns="http://www.w3.org/2000/svg">
<circle cx="39.3287" cy="14.6109" r="13.7667" fill="#00FFFF" fill-opacity="0.5"/>
<path fill-rule="evenodd" clip-rule="evenodd" d="M35.4428 10.806C32.9699 9.5653 30.1777 8.8669 27.2225 8.8669C17.085 8.8669 8.8669 17.085 8.8669 27.2225C8.8669 37.3599 17.085 45.578 27.2225 45.578C37.3599 45.578 45.578 37.3599 45.578 27.2225C45.578 23.9047 44.6978 20.7925 43.1581 18.1068L45.3099 14.957C47.6859 18.454 49.0743 22.6761 49.0743 27.2225C49.0743 39.2909 39.2909 49.0743 27.2225 49.0743C15.154 49.0743 5.37061 39.2909 5.37061 27.2225C5.37061 15.154 15.154 5.37061 27.2225 5.37061C30.9097 5.37061 34.3837 6.28388 37.4305 7.89656L35.4428 10.806ZM38.4063 12.6663C39.3433 13.3873 40.2088 14.1968 40.9901 15.0822L43.0145 12.119C42.2018 11.2694 41.3211 10.4853 40.3813 9.77533L38.4063 12.6663Z" fill="#33363D"/>
<path fill-rule="evenodd" clip-rule="evenodd" d="M43.5032 8.29705C44.3004 8.84167 44.5052 9.92943 43.9606 10.7266L29.032 32.5785C28.7386 33.008 28.2691 33.2846 27.7511 33.3329C27.2332 33.3813 26.7206 33.1965 26.3527 32.8287L17.2442 23.7238C16.5614 23.0412 16.5612 21.9344 17.2437 21.2515C17.9263 20.5687 19.0331 20.5685 19.716 21.2511L27.3339 28.8661L41.0737 8.75437C41.6183 7.95717 42.706 7.75242 43.5032 8.29705Z" fill="#256EF4"/>
</svg>
