<svg width="42" height="43" viewBox="0 0 42 43" fill="none" xmlns="http://www.w3.org/2000/svg">
<rect x="41.8213" y="21.5" width="29.4455" height="29.4455" rx="14.7228" transform="rotate(135 41.8213 21.5)" fill="#CDD1D5"/>
<path fill-rule="evenodd" clip-rule="evenodd" d="M22.1768 12.1296C22.1768 11.4791 21.6495 10.9517 20.999 10.9517C20.3485 10.9517 19.8212 11.4791 19.8212 12.1296L19.8212 20.3229L11.6311 20.3229C10.9806 20.3229 10.4533 20.8502 10.4533 21.5007C10.4533 22.1512 10.9806 22.6785 11.6311 22.6785L19.8212 22.6785V30.8686C19.8212 31.5191 20.3485 32.0464 20.999 32.0464C21.6495 32.0464 22.1768 31.5191 22.1768 30.8686V22.6785L30.3702 22.6785C31.0206 22.6785 31.548 22.1512 31.548 21.5007C31.548 20.8502 31.0206 20.3229 30.3702 20.3229L22.1768 20.3229L22.1768 12.1296Z" fill="#33363D"/>
</svg>
