<svg width="32" height="32" viewBox="0 0 32 32" fill="none" xmlns="http://www.w3.org/2000/svg">
<path fill-rule="evenodd" clip-rule="evenodd" d="M24.9957 5.19727C24.9964 5.19749 24.997 5.19784 24.9983 5.19912L26.8011 7.00193C26.8024 7.00321 26.8027 7.00381 26.803 7.00456C26.8032 7.00525 26.8032 7.00602 26.803 7.00671C26.8027 7.00743 26.8024 7.00802 26.8011 7.00931L17.8104 16L26.8011 24.9907C26.8024 24.992 26.8027 24.9926 26.803 24.9933C26.8032 24.9941 26.8032 24.9948 26.803 24.9955C26.8027 24.9962 26.8024 24.9968 26.8011 24.9981L24.9983 26.8009C24.997 26.8022 24.9964 26.8026 24.9957 26.8028C24.995 26.803 24.9942 26.803 24.9935 26.8028C24.9928 26.8026 24.9922 26.8022 24.9909 26.8009L16.0002 17.8102L7.00949 26.8009C7.00824 26.8022 7.00761 26.8026 7.0069 26.8028C7.00618 26.803 7.00542 26.803 7.00471 26.8028C7.00402 26.8026 7.0034 26.8022 7.00211 26.8009L5.1993 24.9981C5.19802 24.9968 5.19768 24.9962 5.19746 24.9955C5.1972 24.9948 5.1972 24.994 5.19746 24.9933C5.19768 24.9926 5.19802 24.992 5.1993 24.9907L14.19 16L5.1993 7.00931C5.19802 7.00806 5.19768 7.00743 5.19746 7.00671C5.19724 7.006 5.19724 7.00524 5.19746 7.00452C5.19768 7.00384 5.19802 7.00321 5.1993 7.00193L7.00211 5.19912C7.0034 5.19784 7.00399 5.19749 7.00474 5.19727C7.00543 5.19702 7.0062 5.19702 7.0069 5.19727C7.00761 5.19749 7.00821 5.19784 7.00949 5.19912L16.0002 14.1898L24.9909 5.19912C24.9922 5.19784 24.9928 5.19749 24.9935 5.19727C24.9942 5.19706 24.995 5.19706 24.9957 5.19727H24.9957Z" fill="black"/>
</svg>
