<svg width="64" height="64" viewBox="0 0 64 64" fill="none" xmlns="http://www.w3.org/2000/svg">
<rect width="53.3333" height="53.3333" rx="26.6667" transform="matrix(1 0 0 -1 5.33301 58.667)" fill="#0B78CB"/>
<path d="M31.7306 25.1764C33.4979 25.1764 34.9306 23.7437 34.9306 21.9764C34.9306 20.2091 33.4979 18.7764 31.7306 18.7764C29.9633 18.7764 28.5306 20.2091 28.5306 21.9764C28.5306 23.7437 29.9633 25.1764 31.7306 25.1764Z" fill="white"/>
<path d="M27.3973 27.8167C27.2868 27.8167 27.1973 27.9063 27.1973 28.0167V30.8167C27.1973 30.9272 27.2868 31.0167 27.3973 31.0167H29.9348C30.0452 31.0167 30.1348 31.1063 30.1348 31.2167V41.5837H26.866C26.7556 41.5837 26.666 41.6732 26.666 41.7837V44.5837C26.666 44.6941 26.7556 44.7837 26.866 44.7837H37.1327C37.2431 44.7837 37.3327 44.6941 37.3327 44.5837V41.7837C37.3327 41.6732 37.2431 41.5837 37.1327 41.5837H34.9348V28.0167C34.9348 27.9063 34.8452 27.8167 34.7348 27.8167H27.3973Z" fill="white"/>
</svg>
