<svg width="210" height="33" viewBox="0 0 210 33" fill="none" xmlns="http://www.w3.org/2000/svg">
<g clip-path="url(#clip0_352_3392)">
<path d="M40.0625 3.56598C32.8897 -1.69208 21.6489 0.416861 21.6489 0.416861C9.57522 2.18288 4.26643 8.90976 4.26643 8.90976C-1.67124 14.9394 0.697029 19.483 0.697029 19.483C-1.49561 24.6611 2.20411 28.5017 2.20411 28.5017C8.82168 34.9657 21.6489 32.571 21.6489 32.571C35.4959 30.5078 40.3684 22.4835 40.3684 22.4835C44.5781 17.1398 42.5837 13.482 42.5837 13.482C45.105 7.43522 40.0568 3.57169 40.0568 3.57169L40.0625 3.56598ZM1.95482 17.6713C1.95482 17.6713 2.96332 7.17232 21.6489 4.28039C21.6489 4.28039 36.5951 1.65136 37.9492 9.86421C37.9492 9.86421 39.2806 16.6768 23.9662 18.3114V8.79545C23.9662 8.79545 7.94349 9.08693 1.94915 17.6713H1.95482ZM21.6489 28.7132C21.6489 28.7132 6.70269 31.3422 5.34292 23.1351C5.34292 23.1351 4.10779 15.9624 19.3203 14.6879V24.1924C19.3203 24.1924 34.4024 23.6552 41.3429 15.3166C41.3429 15.3166 39.8415 25.6898 21.6489 28.7132Z" fill="#0068B7"/>
<path d="M53.4844 3.13801V1.44629H56.9915V3.13801H60.8782V6.21283H59.1898C59.5751 6.61861 59.8754 7.11584 60.102 7.6988C60.3286 8.28176 60.4419 8.89329 60.4419 9.52769C60.4419 10.9451 59.915 12.1396 58.8669 13.1112C57.8584 14.037 56.6742 14.4943 55.3088 14.4943C53.9433 14.4943 52.7592 14.0313 51.7507 13.1112C50.7252 12.1396 50.204 10.9508 50.204 9.52769C50.204 8.89329 50.3003 8.31033 50.5043 7.76738C50.7026 7.23015 51.0142 6.71006 51.4391 6.21283H49.6657V3.13801H53.4788H53.4844ZM53.8867 7.89312C53.5524 8.28176 53.3824 8.75041 53.3824 9.29336C53.3824 9.83631 53.5524 10.305 53.8867 10.6993C54.2663 11.1337 54.7422 11.3451 55.3088 11.3451C55.8754 11.3451 56.3513 11.128 56.7252 10.6993C57.0822 10.305 57.2635 9.83631 57.2635 9.29336C57.2635 8.75041 57.0878 8.26461 56.7252 7.89312C56.3456 7.48162 55.8754 7.27015 55.3088 7.27015C54.7422 7.27015 54.2663 7.4759 53.8867 7.89312ZM66.5779 2.3093V6.47573H70.102V9.88204H66.5779V17.4662H63.0708V2.3093H66.5779ZM58.051 18.1692V26.6792H66.0793V30.0912H54.5496V18.1749H58.0567L58.051 18.1692Z" fill="#1D2088"/>
<path d="M85.6204 2.30957V12.9114H82.1077V5.72159H72.7479V2.30957H85.6204ZM71.7564 14.5688H86.289V17.9751H80.7932V20.1012H77.2918V17.9751H71.762V14.5688H71.7564ZM85.6204 20.1069V30.2287H82.1077V23.5132H72.7479V20.1069H85.6204Z" fill="#1D2088"/>
<path d="M117.507 3.13801V1.44629H121.014V3.13801H124.561V6.21283H123.212C123.598 6.61861 123.898 7.11584 124.125 7.6988C124.346 8.28176 124.459 8.89329 124.459 9.52769C124.459 10.9451 123.932 12.1396 122.884 13.1112C121.881 14.037 120.691 14.4943 119.326 14.4943C117.96 14.4943 116.776 14.0313 115.768 13.1112C114.742 12.1396 114.227 10.9508 114.227 9.52769C114.227 8.89329 114.323 8.31034 114.527 7.76738C114.731 7.23015 115.042 6.71006 115.467 6.21283H114.028V3.13801H117.507ZM117.966 7.76738C117.649 8.19603 117.484 8.70469 117.484 9.29336C117.484 9.88204 117.649 10.3907 117.966 10.8193C118.329 11.288 118.782 11.5223 119.326 11.5223C119.87 11.5223 120.329 11.288 120.691 10.8193C121.031 10.3964 121.207 9.88204 121.207 9.29336C121.207 8.70469 121.031 8.17317 120.691 7.76738C120.329 7.32159 119.875 7.0987 119.326 7.0987C118.776 7.0987 118.329 7.32159 117.966 7.76738ZM130.601 2.3093V6.47573H134.13V9.88204H130.601V30.3884H127.099V2.3093H130.601Z" fill="#1D2088"/>
<path d="M137.252 12.2653L144.068 1.48633L150.85 12.2653L148.193 13.9571L144.062 7.81885L139.932 13.9571L137.246 12.2653H137.252ZM137.422 15.5859H150.629V18.9922H145.796V30.2227H142.289V18.9922H137.422V15.5859Z" fill="#1D2088"/>
<path d="M168.17 2.30957V5.72159H159.813V10.2024H168.17V13.6087H164.011V15.9234H169.178V19.3297H155.303V15.9234H160.499V13.6087H156.306V2.30957H168.17Z" fill="#1D2088"/>
<path d="M188.737 2.33787V18.4778H185.229V12.9969H182.368V10.9336C182.057 11.9967 181.428 12.854 180.487 13.5112C179.569 14.1628 178.561 14.4943 177.462 14.4943C176.096 14.4943 174.912 14.0313 173.904 13.1112C172.878 12.1396 172.363 10.9508 172.363 9.52769C172.363 8.89329 172.465 8.31034 172.663 7.76738C172.861 7.23015 173.173 6.71006 173.603 6.21283H172.164V3.13801H175.643V1.44629H179.156V3.13801H182.363V4.17248H185.235V2.34359H188.742L188.737 2.33787ZM176.096 7.76738C175.773 8.19603 175.615 8.70469 175.615 9.29336C175.615 9.88204 175.779 10.3907 176.096 10.8193C176.459 11.288 176.912 11.5223 177.456 11.5223C178 11.5223 178.459 11.288 178.822 10.8193C179.167 10.3964 179.337 9.88204 179.337 9.29336C179.337 8.70469 179.167 8.17317 178.822 7.76738C178.459 7.32159 178.006 7.0987 177.456 7.0987C176.907 7.0987 176.459 7.32159 176.096 7.76738ZM181.348 6.20711C181.728 6.6129 182.034 7.11013 182.255 7.69309C182.482 8.27604 182.589 8.88758 182.589 9.51626V9.58484H185.224V7.23586H182.351V6.20711H181.343H181.348ZM179.535 19.5066V22.0841H185.043V19.5066H188.555V30.4227H176.368V19.5066H179.535ZM179.535 27.3536H185.043V25.159H179.535V27.3536Z" fill="#1D2088"/>
<path d="M89.4108 12.2653L95.5581 1.48633L101.671 12.2653L99.0142 13.9571L95.5581 8.15605L92.0963 13.9571L89.4108 12.2653ZM106.833 2.32076V6.48719H110.363V9.8935H106.833V18.1521H103.326V2.32076H106.833ZM105.524 19.9295C106.714 21.1583 107.303 22.6443 107.303 24.4103C107.303 26.1763 106.708 27.628 105.524 28.8511C104.334 30.097 102.907 30.7257 101.229 30.7257C99.5524 30.7257 98.102 30.1027 96.9405 28.8511C95.7507 27.628 95.1615 26.142 95.1615 24.4103C95.1615 22.6786 95.7564 21.1583 96.9405 19.9295C98.1077 18.7065 99.5354 18.0949 101.229 18.0949C102.924 18.0949 104.334 18.7122 105.524 19.9295ZM99.3994 22.41C98.9235 22.97 98.6856 23.6387 98.6856 24.4103C98.6856 25.1819 98.9235 25.8163 99.3994 26.3821C99.898 26.965 100.51 27.2565 101.229 27.2565C101.949 27.2565 102.533 26.965 103.025 26.3821C103.524 25.8163 103.773 25.1647 103.773 24.4103C103.773 23.6559 103.524 22.97 103.025 22.41C102.533 21.8499 101.932 21.5698 101.229 21.5698C100.527 21.5698 99.898 21.8499 99.3994 22.41Z" fill="#1D2088"/>
<path d="M210 2.32031H206.493V30.7481H210V2.32031Z" fill="#1D2088"/>
<path d="M200.119 14.1914C201.042 13.8599 201.813 13.3398 202.414 12.6197C203.156 11.7395 203.524 10.7108 203.524 9.5334C203.524 8.90472 203.411 8.29319 203.19 7.70452C202.958 7.11584 202.652 6.61861 202.278 6.21283H203.626V3.48093H200.079V1.44629H196.578V3.48093H193.093V6.21283H194.533C194.108 6.71006 193.796 7.23015 193.592 7.7731C193.388 8.31605 193.292 8.90472 193.292 9.5334C193.292 10.665 193.637 11.6823 194.329 12.5854C194.924 13.3283 195.694 13.8599 196.606 14.1856V15.4316H192.414V18.8379H204.618V15.4316H200.119V14.1914ZM196.946 7.67594C197.331 7.20157 197.813 6.96153 198.397 6.96153C198.98 6.96153 199.462 7.20157 199.847 7.67594C200.21 8.1103 200.391 8.65325 200.391 9.29908C200.391 9.9449 200.21 10.4707 199.847 10.9279C199.462 11.4252 198.975 11.6766 198.397 11.6766C197.819 11.6766 197.331 11.4252 196.946 10.9279C196.601 10.4707 196.431 9.93347 196.431 9.29908C196.431 8.66468 196.601 8.12745 196.946 7.67594Z" fill="#1D2088"/>
</g>
<defs>
<clipPath id="clip0_352_3392">
<rect width="210" height="33" fill="white"/>
</clipPath>
</defs>
</svg>
